<svg width="35" height="35" viewBox="0 0 35 35" fill="none" xmlns="http://www.w3.org/2000/svg">
<path d="M5.8335 27.7082V24.7915H8.75016V14.5832C8.75016 12.5658 9.3578 10.7794 10.5731 9.22379C11.7884 7.64393 13.3682 6.61095 15.3127 6.12484V5.104C15.3127 4.49636 15.5193 3.98595 15.9325 3.57275C16.37 3.13525 16.8925 2.9165 17.5002 2.9165C18.1078 2.9165 18.6182 3.13525 19.0314 3.57275C19.4689 3.98595 19.6877 4.49636 19.6877 5.104V6.12484C21.6321 6.61095 23.212 7.64393 24.4272 9.22379C25.6425 10.7794 26.2502 12.5658 26.2502 14.5832V24.7915H29.1668V27.7082H5.8335ZM17.5002 32.0832C16.6981 32.0832 16.0054 31.8037 15.422 31.2446C14.863 30.6613 14.5835 29.9686 14.5835 29.1665H20.4168C20.4168 29.9686 20.1252 30.6613 19.5418 31.2446C18.9828 31.8037 18.3022 32.0832 17.5002 32.0832ZM11.6668 24.7915H23.3335V14.5832C23.3335 12.979 22.7623 11.6057 21.62 10.4634C20.4776 9.32102 19.1043 8.74984 17.5002 8.74984C15.896 8.74984 14.5227 9.32102 13.3804 10.4634C12.238 11.6057 11.6668 12.979 11.6668 14.5832V24.7915Z" fill="black"/>
</svg>
